<svg width="24" height="24" viewBox="0 0 24 24" xmlns="http://www.w3.org/2000/svg">
<path d="M20 17.58C21.0512 17.1196 21.9121 16.3115 22.4381 15.2915C22.964 14.2715 23.1231 13.1016 22.8886 11.9782C22.654 10.8547 22.0402 9.8462 21.15 9.12182C20.2599 8.39745 19.1476 8.00134 18 7.99999H16.74C16.423 6.77251 15.8188 5.63794 14.9773 4.68979C14.1357 3.74164 13.0809 3.00706 11.8997 2.54661C10.7186 2.08615 9.44488 1.913 8.18365 2.04143C6.92243 2.16986 5.70978 2.59618 4.64567 3.28527C3.58155 3.97436 2.69644 4.90647 2.06328 6.00478C1.43012 7.1031 1.06704 8.33616 1.00398 9.60234C0.940923 10.8685 1.17968 12.1316 1.70058 13.2873C2.22147 14.4431 3.00959 15.4586 3.99997 16.25" stroke="#060C1A" stroke-linecap="round" stroke-linejoin="round"/>
<path d="M8 16H8.01" stroke="#060C1A" stroke-linecap="round" stroke-linejoin="round"/>
<path d="M8 20H8.01" stroke="#060C1A" stroke-linecap="round" stroke-linejoin="round"/>
<path d="M12 18H12.01" stroke="#060C1A" stroke-linecap="round" stroke-linejoin="round"/>
<path d="M12 22H12.01" stroke="#060C1A" stroke-linecap="round" stroke-linejoin="round"/>
<path d="M16 16H16.01" stroke="#060C1A" stroke-linecap="round" stroke-linejoin="round"/>
<path d="M16 20H16.01" stroke="#060C1A" stroke-linecap="round" stroke-linejoin="round"/>
</svg>
