<svg width="24" height="24" viewBox="0 0 24 24" xmlns="http://www.w3.org/2000/svg">
<path d="M22.65 14.39L12 22.13L1.34999 14.39C1.20722 14.285 1.10131 14.1375 1.04743 13.9687C0.993542 13.7999 0.99444 13.6183 1.04999 13.45L2.26999 9.67001L4.70999 2.16001C4.73366 2.09881 4.77133 2.04402 4.81999 2.00001C4.89923 1.92763 5.00267 1.8875 5.10999 1.8875C5.21731 1.8875 5.32075 1.92763 5.39999 2.00001C5.45137 2.04967 5.48924 2.11163 5.50999 2.18001L7.94999 9.67001H16.05L18.49 2.16001C18.5137 2.09881 18.5513 2.04402 18.6 2.00001C18.6792 1.92763 18.7827 1.8875 18.89 1.8875C18.9973 1.8875 19.1008 1.92763 19.18 2.00001C19.2314 2.04967 19.2692 2.11163 19.29 2.18001L21.73 9.69001L23 13.45C23.0505 13.6235 23.0437 13.8086 22.9807 13.978C22.9176 14.1473 22.8017 14.2918 22.65 14.39Z" stroke="#060C1A" stroke-linecap="round" stroke-linejoin="round"/>
</svg>
