<svg width="24" height="24" viewBox="0 0 24 24" xmlns="http://www.w3.org/2000/svg">
<path d="M16 16L12 12L8 16" stroke="#060C1A" stroke-linecap="round" stroke-linejoin="round"/>
<path d="M12 12V21" stroke="#060C1A" stroke-linecap="round" stroke-linejoin="round"/>
<path d="M20.39 18.39C21.3653 17.8583 22.1358 17.0169 22.5799 15.9986C23.0239 14.9804 23.1162 13.8432 22.8422 12.7667C22.5682 11.6902 21.9435 10.7355 21.0667 10.0535C20.1898 9.3714 19.1109 9.00075 18 9.00001H16.74C16.4373 7.82926 15.8732 6.74235 15.0899 5.82101C14.3067 4.89967 13.3248 4.16786 12.2181 3.68062C11.1113 3.19338 9.90854 2.96337 8.70011 3.0079C7.49167 3.05242 6.30906 3.37031 5.24117 3.93768C4.17328 4.50505 3.2479 5.30712 2.53461 6.2836C1.82132 7.26008 1.33868 8.38555 1.12297 9.57541C0.90726 10.7653 0.964096 11.9885 1.2892 13.1533C1.61431 14.318 2.19923 15.3939 2.99999 16.3" stroke="#060C1A" stroke-linecap="round" stroke-linejoin="round"/>
<path d="M16 16L12 12L8 16" stroke="#060C1A" stroke-linecap="round" stroke-linejoin="round"/>
</svg>
