<svg width="24" height="24" viewBox="0 0 24 24" xmlns="http://www.w3.org/2000/svg">
<path d="M9 2L8.461 4.392C8.23655 5.38568 7.7351 6.29541 7.01476 7.01576C6.29441 7.7361 5.38468 8.23755 4.391 8.462L2 9L4.392 9.539C5.38568 9.76345 6.29542 10.2649 7.01576 10.9852C7.7361 11.7056 8.23755 12.6153 8.462 13.609L9 16L9.539 13.608C9.76345 12.6143 10.2649 11.7046 10.9852 10.9842C11.7056 10.2639 12.6153 9.76245 13.609 9.538L16 9L13.608 8.461C12.6143 8.23655 11.7046 7.7351 10.9842 7.01476C10.2639 6.29442 9.76245 5.38468 9.538 4.391L9 2ZM17 12L16.615 13.708C16.4547 14.4177 16.0965 15.0675 15.582 15.582C15.0675 16.0965 14.4177 16.4547 13.708 16.615L12 17L13.708 17.385C14.4177 17.5453 15.0675 17.9035 15.582 18.418C16.0965 18.9325 16.4547 19.5823 16.615 20.292L17 22L17.385 20.292C17.5453 19.5823 17.9035 18.9325 18.418 18.418C18.9325 17.9035 19.5823 17.5453 20.292 17.385L22 17L20.292 16.615C19.5823 16.4547 18.9325 16.0965 18.418 15.582C17.9035 15.0675 17.5453 14.4177 17.385 13.708L17 12Z" stroke-linecap="round" stroke-linejoin="round"/>
</svg>
