<svg width="24" height="24" viewBox="0 0 24 24" xmlns="http://www.w3.org/2000/svg">
<path d="M8.5 20.25C8.5 19.45 8.82 18.69 9.38 18.13C9.94 17.57 10.71 17.25 11.5 17.25C12.29 17.25 13.06 17.57 13.62 18.13C14.18 18.69 14.5 19.46 14.5 20.25H19V15.75H19.75C20.35 15.75 20.92 15.51 21.34 15.09C21.76 14.67 22 14.1 22 13.5C22 12.9 21.76 12.33 21.34 11.91C20.92 11.49 20.35 11.25 19.75 11.25H19V6H14.5C14.5 5.2 14.18 4.44 13.62 3.88C13.06 3.32 12.29 3 11.5 3C9.88 3 8.5 4.38 8.5 6H4V9.75H6.25C6.85 9.75 7.42 9.99 7.84 10.41C8.26 10.83 8.5 11.4 8.5 12C8.5 12.6 8.26 13.17 7.84 13.59C7.42 14.01 6.85 14.25 6.25 14.25H4V20.25H8.5Z" stroke-linejoin="round"/>
</svg>
