<svg width="24" height="24" viewBox="0 0 24 24" xmlns="http://www.w3.org/2000/svg">
<path d="M10.3077 10.7308C10.3077 10.282 10.486 9.85151 10.8034 9.53414C11.1207 9.21677 11.5512 9.03847 12 9.03847C12.4488 9.03847 12.8793 9.21677 13.1967 9.53414C13.514 9.85151 13.6923 10.282 13.6923 10.7308M22.1539 9.03847H23M22.1539 9.03847C22.1539 14.1154 21.3077 15.8077 17.9231 15.8077C14.5385 15.8077 13.6923 14.1154 13.6923 9.03847C13.6923 9.03847 14.5385 8.19232 17.9231 8.19232C21.3077 8.19232 22.1539 9.03847 22.1539 9.03847ZM1.84618 9.03847H1.00003M1.84618 9.03847C1.84618 14.1154 2.69234 15.8077 6.07695 15.8077C9.46156 15.8077 10.3077 14.1154 10.3077 9.03847C10.3077 9.03847 9.46156 8.19232 6.07695 8.19232C2.69234 8.19232 1.84618 9.03847 1.84618 9.03847Z" stroke-linecap="round" stroke-linejoin="round"/>
</svg>
