<svg width="24" height="24" viewBox="0 0 24 24" xmlns="http://www.w3.org/2000/svg">
<path d="M11 14L6 14C4.93913 14 3.92172 14.4214 3.17157 15.1716C2.42143 15.9217 2 16.9391 2 18V20" stroke-linecap="round" stroke-linejoin="round"/>
<path d="M10 10C12.2091 10 14 8.20914 14 6C14 3.79086 12.2091 2 10 2C7.79086 2 6 3.79086 6 6C6 8.20914 7.79086 10 10 10Z" stroke-linecap="round" stroke-linejoin="round"/>
<g clip-path="url(#clip0_4044_6321)">
<path d="M17 18.5C17.8284 18.5 18.5 17.8284 18.5 17C18.5 16.1716 17.8284 15.5 17 15.5C16.1716 15.5 15.5 16.1716 15.5 17C15.5 17.8284 16.1716 18.5 17 18.5Z" stroke-linecap="round" stroke-linejoin="round"/>
<path d="M20.7 18.5C20.6334 18.6508 20.6136 18.8181 20.643 18.9803C20.6724 19.1425 20.7497 19.2922 20.865 19.41L20.895 19.44C20.988 19.5329 21.0617 19.6432 21.1121 19.7646C21.1624 19.886 21.1883 20.0161 21.1883 20.1475C21.1883 20.2789 21.1624 20.409 21.1121 20.5304C21.0617 20.6518 20.988 20.7621 20.895 20.855C20.8021 20.948 20.6918 21.0217 20.5704 21.0721C20.449 21.1224 20.3189 21.1483 20.1875 21.1483C20.0561 21.1483 19.926 21.1224 19.8046 21.0721C19.6832 21.0217 19.5729 20.948 19.48 20.855L19.45 20.825C19.3322 20.7097 19.1825 20.6324 19.0203 20.603C18.8581 20.5736 18.6908 20.5934 18.54 20.66C18.3921 20.7234 18.266 20.8286 18.1772 20.9628C18.0883 21.0969 18.0406 21.2541 18.04 21.415V21.5C18.04 21.7652 17.9346 22.0196 17.7471 22.2071C17.5596 22.3946 17.3052 22.5 17.04 22.5C16.7748 22.5 16.5204 22.3946 16.3329 22.2071C16.1454 22.0196 16.04 21.7652 16.04 21.5V21.455C16.0361 21.2895 15.9826 21.129 15.8863 20.9944C15.79 20.8597 15.6554 20.7571 15.5 20.7C15.3492 20.6334 15.1819 20.6136 15.0197 20.643C14.8575 20.6724 14.7078 20.7497 14.59 20.865L14.56 20.895C14.4671 20.988 14.3568 21.0617 14.2354 21.1121C14.114 21.1624 13.9839 21.1883 13.8525 21.1883C13.7211 21.1883 13.591 21.1624 13.4696 21.1121C13.3482 21.0617 13.2379 20.988 13.145 20.895C13.052 20.8021 12.9783 20.6918 12.9279 20.5704C12.8776 20.449 12.8517 20.3189 12.8517 20.1875C12.8517 20.0561 12.8776 19.926 12.9279 19.8046C12.9783 19.6832 13.052 19.5729 13.145 19.48L13.175 19.45C13.2903 19.3322 13.3676 19.1825 13.397 19.0203C13.4264 18.8581 13.4066 18.6908 13.34 18.54C13.2766 18.3921 13.1714 18.266 13.0372 18.1772C12.9031 18.0883 12.7459 18.0406 12.585 18.04H12.5C12.2348 18.04 11.9804 17.9346 11.7929 17.7471C11.6054 17.5596 11.5 17.3052 11.5 17.04C11.5 16.7748 11.6054 16.5204 11.7929 16.3329C11.9804 16.1454 12.2348 16.04 12.5 16.04H12.545C12.7105 16.0361 12.871 15.9826 13.0056 15.8863C13.1403 15.79 13.2429 15.6554 13.3 15.5C13.3666 15.3492 13.3864 15.1819 13.357 15.0197C13.3276 14.8575 13.2503 14.7078 13.135 14.59L13.105 14.56C13.012 14.4671 12.9383 14.3568 12.8879 14.2354C12.8376 14.114 12.8117 13.9839 12.8117 13.8525C12.8117 13.7211 12.8376 13.591 12.8879 13.4696C12.9383 13.3482 13.012 13.2379 13.105 13.145C13.1979 13.052 13.3082 12.9783 13.4296 12.9279C13.551 12.8776 13.6811 12.8517 13.8125 12.8517C13.9439 12.8517 14.074 12.8776 14.1954 12.9279C14.3168 12.9783 14.4271 13.052 14.52 13.145L14.55 13.175C14.6678 13.2903 14.8175 13.3676 14.9797 13.397C15.1419 13.4264 15.3092 13.4066 15.46 13.34H15.5C15.6479 13.2766 15.774 13.1714 15.8628 13.0372C15.9517 12.9031 15.9994 12.7459 16 12.585V12.5C16 12.2348 16.1054 11.9804 16.2929 11.7929C16.4804 11.6054 16.7348 11.5 17 11.5C17.2652 11.5 17.5196 11.6054 17.7071 11.7929C17.8946 11.9804 18 12.2348 18 12.5V12.545C18.0006 12.7059 18.0483 12.8631 18.1372 12.9972C18.226 13.1314 18.3521 13.2366 18.5 13.3C18.6508 13.3666 18.8181 13.3864 18.9803 13.357C19.1425 13.3276 19.2922 13.2503 19.41 13.135L19.44 13.105C19.5329 13.012 19.6432 12.9383 19.7646 12.8879C19.886 12.8376 20.0161 12.8117 20.1475 12.8117C20.2789 12.8117 20.409 12.8376 20.5304 12.8879C20.6518 12.9383 20.7621 13.012 20.855 13.105C20.948 13.1979 21.0217 13.3082 21.0721 13.4296C21.1224 13.551 21.1483 13.6811 21.1483 13.8125C21.1483 13.9439 21.1224 14.074 21.0721 14.1954C21.0217 14.3168 20.948 14.4271 20.855 14.52L20.825 14.55C20.7097 14.6678 20.6324 14.8175 20.603 14.9797C20.5736 15.1419 20.5934 15.3092 20.66 15.46V15.5C20.7234 15.6479 20.8286 15.774 20.9628 15.8628C21.0969 15.9517 21.2541 15.9994 21.415 16H21.5C21.7652 16 22.0196 16.1054 22.2071 16.2929C22.3946 16.4804 22.5 16.7348 22.5 17C22.5 17.2652 22.3946 17.5196 22.2071 17.7071C22.0196 17.8946 21.7652 18 21.5 18H21.455C21.2941 18.0006 21.1369 18.0483 21.0028 18.1372C20.8686 18.226 20.7634 18.3521 20.7 18.5Z" stroke-linecap="round" stroke-linejoin="round"/>
</g>
<defs>
<clipPath id="clip0_4044_6321">
<rect width="12" height="12" transform="translate(11 11)"/>
</clipPath>
</defs>
</svg>
